<?xml version="1.0" encoding="UTF-8" standalone="no"?><!DOCTYPE svg PUBLIC "-//W3C//DTD SVG 1.1//EN" "http://www.w3.org/Graphics/SVG/1.1/DTD/svg11.dtd">
<svg viewBox="0 0 468 90" version="1.1" 
  xmlns="http://www.w3.org/2000/svg" 
  xmlns:xlink="http://www.w3.org/1999/xlink" xml:space="preserve" 
  xmlns:serif="http://www.serif.com/" style="fill-rule:evenodd;clip-rule:evenodd;stroke-linejoin:round;stroke-miterlimit:2;">
  <g id="underbar">
    <rect x="0" y="85.687" width="467.625" height="3.611" style="fill:#f76800;"/>
  </g>
  <g id="words">
    <g id="university">
      <path d="M357.946,75.363c0.914,0.055 3.719,0.055 4.645,0l0,-0.516c0.044,0.03 -0.036,0.03 0,0c-1.372,0.03 -1.487,-0.566 -1.549,-2.064l0,-2.84l3.615,-6.453c0.414,-0.766 0.685,-1.115 1.805,-1.289l0,-0.516c-0.791,0.149 -3.016,0.149 -3.871,0l0,0.516c0.953,0.174 1.263,0.271 1.289,0.775c-0.026,0.057 -0.067,0.25 -0.258,0.514l-2.836,5.68l-3.098,-5.68c-0.166,-0.147 -0.224,-0.342 -0.26,-0.514c0.036,-0.426 0.405,-0.66 1.036,-0.775l0,-0.516c-0.862,0.149 -3.725,0.149 -4.649,0l0,0.516c0.844,0.135 1.404,0.465 1.809,1.289l3.869,6.969l0,2.324c-0.051,1.592 -0.383,2.094 -1.547,2.064c-0.057,0.03 -0.072,0.03 0,0l0,0.516Z" style="fill:#222;fill-rule:nonzero;"/>
      <path d="M339.879,62.458l0,10.322c-0.053,1.672 -0.381,2.076 -1.807,2.065l0,0.517c1.153,0.057 3.905,0.057 5.161,0l0,-0.517c-1.684,0.033 -1.76,-0.491 -1.803,-2.065l0,-10.322l1.289,0c2.41,0.092 3.264,0.324 3.355,2.84l0.514,0c-0.047,-0.795 -0.047,-2.461 0,-3.613l-11.867,0c0.035,0.941 0.035,2.877 0,3.613l0.515,0c0.159,-2.244 0.971,-2.748 3.354,-2.84l1.289,0Z" style="fill:#222;fill-rule:nonzero;"/>
      <path d="M322.333,75.363c1.124,0.055 3.854,0.055 4.899,0l0,-0.516c0,0 -0.246,0.001 -0.255,0c-1.178,0.03 -1.293,-0.566 -1.291,-2.064l0,-8c-0.002,-1.828 0.132,-2.408 1.546,-2.324l0,-0.774c-0.949,0.149 -3.871,0.149 -4.9,0l0,0.774c0.002,-0.001 0.256,-0.001 0.256,0c1.025,-0.084 1.392,0.34 1.291,1.549l0,8.775c0.101,1.572 -0.266,2.094 -1.291,2.064c-0.002,0 -0.252,0.001 -0.256,0l0,0.516Z" style="fill:#222;fill-rule:nonzero;"/>
      <path d="M306.073,75.363c1.121,0.229 2.244,0.406 3.355,0.516c3.03,-0.11 4.717,-1.719 4.645,-4.385c0.072,-1.318 -0.551,-2.248 -1.809,-3.1c-1.123,-0.619 -2.457,-1.064 -3.613,-1.804c-0.738,-0.479 -1.146,-1.235 -1.031,-2.065c-0.115,-1.203 0.932,-2.226 2.322,-2.324c1.994,0.098 3.076,1.101 3.098,3.098l0.777,0c-0.119,-0.698 -0.119,-2.5 0,-3.356c-1.164,-0.072 -2.246,-0.42 -3.615,-0.518c-2.465,0.098 -4.188,1.782 -4.129,3.874c-0.059,1.935 1.314,2.767 3.611,3.871c1.961,0.832 3.123,1.451 3.1,3.097c0.023,1.604 -1.156,2.768 -2.842,2.838c-1.781,-0.07 -3.137,-1.252 -3.351,-3.097l-0.518,0l0,3.355" style="fill:#222;fill-rule:nonzero;"/>
      <path d="M293.789,62.15c-2.372,-1.044 -5.081,-0.055 -7.557,-0.463l0,0.772c1.12,-0.592 1.623,0.764 1.55,1.55l0,8.774c0.113,1.592 -0.235,2.096 -1.55,2.064c0.002,0 0,0.514 0,0.514c1.064,0.059 3.887,0.059 4.906,0l0,-0.514c-0.258,0 0,0 -0.259,0c-1.3,-0.004 -1.33,-0.875 -1.292,-2.064l0,-3.613c0.844,0.056 1.368,0.076 1.55,0.257c0.224,0.012 0.435,0.418 0.772,1.032l1.81,2.837c0.213,0.376 0.437,0.749 0.706,1.087c1.079,1.355 2.378,1.16 3.938,1.236l0,-0.514c-1.894,-0.014 -2.435,-0.961 -3.355,-2.58l-2.065,-3.871c0.806,-0.137 1.632,-0.429 2.18,-1.078c1.442,-1.71 0.615,-4.568 -1.334,-5.426l-0.744,0.967c1.189,1.004 1.36,3.53 0.179,4.611c-0.929,0.85 -2.489,0.72 -3.637,0.666l0,-5.935c1.12,-0.066 2.537,-0.123 3.459,0.658l0.744,-0.967" style="fill:#222;fill-rule:nonzero;"/>
      <path d="M268.655,75.363c1.596,0.039 3.027,0.02 4.387,0c1.16,0.02 2.994,0.039 5.418,0c0.113,-0.988 0.343,-2.111 0.515,-3.355l-0.515,0c-0.545,2.388 -1.532,2.617 -4.387,2.582c-1.908,0.035 -2.102,-0.135 -2.066,-1.807l0,-4.129c0.169,-0.012 1.547,-0.001 1.548,0c1.766,-0.066 2.387,0.09 2.325,1.289l0.515,0c0.108,-0.697 0.108,-2.826 0,-3.611l-0.515,0c0.001,0.001 0.001,0.257 0,0.258c0.097,1.148 -0.715,1.341 -2.584,1.289c-0.017,0.002 -1.247,0.003 -1.289,0l0,-5.159l1.035,0c3.07,-0.093 4.254,0.1 4.384,2.321l0.516,0c-0.045,-1.08 -0.258,-3.356 -0.258,-3.356c-2.265,0.168 -7.59,0.168 -9.029,0l0,0.774c0.001,-0.001 0.256,-0.001 0.256,0c1.049,-0.084 1.416,0.34 1.289,1.549l0,8.775c0.127,1.592 -0.221,2.094 -1.545,2.064c0.104,0.03 0.088,0.03 0,0l0,0.516Z" style="fill:#222;fill-rule:nonzero;"/>
      <path d="M252.395,75.88l0.516,0l5.162,-11.613c0.443,-1.235 0.734,-1.852 2.062,-1.809l0,-0.773c-0.707,0.146 -3.303,0.146 -4.129,0l0,0.773c0.809,-0.006 0.922,0.164 1.034,0.518c0.103,0.326 -3.874,10.32 -3.874,10.32c0,0 -3.995,-9.761 -4.126,-10.061c-0.238,-0.546 0.554,-0.841 1.548,-0.777l0,-0.773c-0.935,0.146 -4.035,0.146 -5.162,0l0,0.773c1.303,0.012 1.768,0.596 2.323,1.809l4.646,11.613Z" style="fill:#222;fill-rule:nonzero;"/>
      <path d="M233.039,75.363c1.016,0.055 3.744,0.055 4.904,0l0,-0.516c0,0 -0.258,0 -0.259,0c-1.288,0.03 -1.403,-0.566 -1.291,-2.064l0,-8c-0.112,-1.828 0.023,-2.408 1.55,-2.324l0,-0.774c-1.06,0.149 -3.984,0.149 -4.904,0l0,0.774c0.001,-0.001 0.258,-0.001 0.258,0c0.914,-0.084 1.281,0.34 1.289,1.549l0,8.775c-0.008,1.572 -0.375,2.094 -1.547,2.064c0,0 0,0.516 0,0.516Z" style="fill:#222;fill-rule:nonzero;"/>
      <path d="M212.909,64.007l9.291,11.615l0.773,0c-0.029,-6.939 0.086,-10.791 0.26,-11.615c0.226,-1.073 0.33,-1.555 1.549,-1.549l0,-0.773c-0.91,0.146 -3.502,0.146 -4.131,0l0,0.773c0.783,-0.027 1.131,0.207 1.291,1.031c0.151,0.414 0.229,2.7 0.258,6.711c-0.029,0.787 -0.029,1.639 0,2.58l-9.031,-11.095c-0.561,0.146 -2.303,0.146 -3.098,0l0,0.773c1.59,-0.084 1.957,0.129 2.065,1.289c-0.108,6.061 -0.262,9.233 -0.258,9.291c-0.121,1.317 -0.449,1.762 -1.549,1.807l0,0.517c0.867,0.057 3.228,0.057 4.129,0l0,-0.517c-0.94,-0.025 -1.287,-0.258 -1.549,-1.029c-0.049,-0.448 -0.107,-8.789 0,-9.809" style="fill:#222;fill-rule:nonzero;"/>
      <path d="M188.393,64.007l0,5.937c0.105,3.733 2.271,5.825 5.42,5.936c2.019,-0.111 3.646,-0.924 4.644,-2.322c0.995,-1.506 0.995,-3.268 1.032,-5.422l0,-3.613c-0.037,-1.491 0.082,-1.995 1.293,-2.065l0,-0.773c-0.789,0.146 -3.11,0.146 -3.873,0l0,0.773c1.617,-0.084 1.617,1.059 1.548,4.647l0,2.58c0.069,3.451 -1.695,5.291 -4.386,5.16c-2.323,0.131 -3.908,-1.44 -3.871,-4.129l0,-5.936c-0.037,-1.824 0.097,-2.406 1.547,-2.322l0,-0.773c-0.985,0.146 -3.868,0.146 -4.903,0l0,0.773c0.001,0 0.258,0 0.258,0c1.027,-0.084 1.396,0.344 1.291,1.549" style="fill:#222;fill-rule:nonzero;"/>
    </g>
    <g id="mercer">
      <path d="M360.114,7.3c-2.029,-0.689 -4.393,-1.068 -7.072,-1.1c-3.412,0.123 -7.174,0.62 -11.612,0.514c-1.453,0.106 -3.175,0.035 -6.709,-0.258c-0.752,0.182 -1.291,2.199 0.256,2.324c3.51,-0.091 4.858,0.803 4.903,4.903l0,34.842c-0.045,5.308 -0.266,5.697 -4.643,6.193c-1.566,0.248 -1.592,1.852 0.256,1.805c3.646,-0.026 11.787,-0.157 15.482,0c1.141,-0.016 1.952,-1.662 0,-1.805c-4.908,-0.227 -5.107,-2.219 -5.16,-7.744l0,-13.936c3.317,0.16 6.856,0.231 7.485,0.518c0.859,0.424 1.64,2.504 3.097,4.904l6.449,10.58c3.522,5.967 7.686,8.168 13.938,8.258c1.273,-0.09 0.735,-0.054 2.322,-0.258c1.235,-0.158 0.846,-1.542 0,-1.551c-5.484,-0.056 -8.197,-3.673 -11.611,-9.804l-8.262,-13.676c4.576,-1.443 9.703,-5.529 9.807,-12.391c-0.078,-5.947 -3.166,-10.367 -8.926,-12.318l-1.457,3.285c3.107,1.949 4.732,5.414 4.707,10.067c0.041,6.75 -3.932,10.369 -11.355,10.324c-1.733,0.045 -4.438,-0.168 -6.194,-0.518l0,-21.42c1.969,-0.16 4.604,-0.23 5.68,-0.258c2.894,0.008 5.297,0.635 7.162,1.805l1.457,-3.285Z" style="fill:#222;fill-rule:nonzero;"/>
      <path d="M296.008,56.523c5.664,-0.094 10.221,-0.168 15.227,-0.258c4.218,0.09 11.443,0.242 20.646,0.258c0.088,-0.334 0.744,0.521 1.031,-1.033c0.151,-3.485 0.869,-6.582 1.032,-10.58c0.293,-0.77 -1.319,-2.114 -1.29,0c-1.732,8.633 -7.195,9.484 -17.289,9.55c-7.365,-0.066 -8.074,-0.705 -8.003,-6.71l0,-16.258c3.476,-0.047 6.933,-0.047 7.484,0c6.119,-0.047 8.101,0.015 8.519,3.869c0.256,1.658 2,0.982 2.063,0c-0.133,-2.656 -0.133,-8.149 0,-10.838c-0.33,-1.889 -2.08,-1.082 -2.063,-0.258c0.172,4.059 -2.964,5.09 -10.066,5.16c-1.414,-0.07 -4.305,-0.142 -5.937,-0.257l0,-20.129l5.677,0c10.891,-0.036 15.385,0.826 15.485,8.002c0.07,1.156 1.681,0.755 1.808,0c0.008,-3.813 -0.226,-10.079 -0.261,-10.584c-8.696,0.293 -28.672,0.293 -33.805,0c-1.008,-0.086 -1.545,2.199 0,2.324c3.644,-0.096 4.992,1.449 4.902,5.418l0,33.035c0.09,5.434 -0.205,7.66 -4.902,7.742c-1.408,-0.082 -1.141,1.664 -0.258,1.547" style="fill:#222;fill-rule:nonzero;"/>
      <path d="M293.686,16.265c0.025,-2.139 0.293,-6.381 0.258,-8.002c-5.645,-1.359 -11.496,-2.719 -19.354,-2.836c-15.56,0.117 -26.373,11.756 -26.326,26.838c-0.047,14.867 11.914,24.375 26.067,24.258c8.189,0.117 17.195,-3.637 21.677,-8.774l0,-5.677c-5.547,7.621 -12.418,12.285 -20.388,12.388c-12.182,-0.103 -21.491,-10.857 -21.42,-24.517c-0.071,-13.332 9.088,-22.229 20.39,-22.196c8.924,-0.033 13.141,2.387 17.807,8.518c0.709,1.262 1.383,-0.082 1.289,0" style="fill:#222;fill-rule:nonzero;"/>
      <path d="M240.176,7.81c-2.309,-1.008 -5.127,-1.572 -8.428,-1.609c-3.359,0.121 -14.734,0.548 -18.322,0.257c-0.697,0.18 -1.234,2.196 0.258,2.323c3.562,-0.09 4.91,0.804 4.902,4.902l0,34.838c0.008,5.314 -0.211,5.701 -4.387,6.199c-1.771,0.244 -1.794,1.85 0,1.805c3.702,-0.027 11.84,-0.16 15.487,0c1.189,-0.018 1.998,-1.664 0,-1.805c-4.858,-0.228 -5.059,-2.219 -5.164,-7.746l0,-13.935c3.369,0.158 6.908,0.23 7.484,0.517c0.914,0.422 1.693,2.504 3.098,4.902l6.453,10.581c3.568,5.97 7.734,8.169 13.933,8.259c1.327,-0.09 0.78,-0.16 2.323,-0.259c1.287,-0.043 0.884,-1.743 0,-1.549c-5.432,-0.055 -8.143,-3.674 -11.356,-9.805l-8.513,-13.678c4.625,-1.443 9.75,-5.527 9.802,-12.386c-0.037,-5.477 -2.646,-9.659 -7.57,-11.811l-1.887,3.406c2.533,2.026 3.834,5.248 3.782,9.436c0.093,6.752 -3.879,10.369 -11.354,10.324c-1.68,0.045 -4.387,-0.166 -6.195,-0.518l0,-21.419c2.021,-0.161 4.656,-0.231 5.677,-0.258c3.405,0.011 6.122,0.861 8.09,2.435l1.887,-3.406Z" style="fill:#222;fill-rule:nonzero;"/>
      <path d="M174.715,56.523c5.717,-0.094 10.271,-0.168 15.227,-0.258c4.271,0.09 11.498,0.242 20.644,0.258c0.143,-0.334 0.799,0.521 1.033,-1.033c0.207,-3.485 0.922,-6.582 1.289,-10.58c0.088,-0.77 -1.523,-2.114 -1.547,0c-1.679,8.633 -7.142,9.484 -17.033,9.55c-7.566,-0.066 -8.277,-0.705 -8.259,-6.71l0,-16.258c3.531,-0.047 6.988,-0.047 7.484,0c6.174,-0.047 8.154,0.015 8.517,3.869c0.311,1.658 2.057,0.982 2.065,0c-0.078,-2.656 -0.078,-8.149 0,-10.838c-0.277,-1.889 -2.024,-1.082 -2.065,-0.258c0.227,4.059 -2.91,5.09 -10.064,5.16c-1.363,-0.07 -4.252,-0.142 -5.937,-0.257l0,-20.129l5.677,0c10.944,-0.036 15.438,0.826 15.485,8.002c0.123,1.156 1.734,0.755 1.806,0c0.063,-3.813 -0.172,-10.079 -0.258,-10.584c-8.642,0.293 -16.482,0.363 -20.644,0.257c-4.283,0.106 -7.975,0.036 -12.904,-0.257c-1.213,-0.086 -1.75,2.199 0,2.324c3.439,-0.096 4.787,1.449 4.904,5.418l0,33.035c-0.117,5.434 -0.412,7.66 -5.162,7.742c-1.358,-0.082 -1.088,1.664 -0.258,1.547" style="fill:#222;fill-rule:nonzero;"/>
      <path d="M86.971,75.363c4.801,-0.01 15.104,0.016 20.904,0.26c2.297,-0.031 1.223,-2.449 0,-2.323c-4.824,-0.074 -7.648,-3.406 -7.742,-10.066l0.258,-49.809l30.711,62.198c0.308,0.644 1.805,0.515 1.805,0.515c0.654,-0.007 0.914,-0.953 1.031,-1.033l28.648,-68.904l0.774,58.582c0.017,6.4 -1.977,8.66 -7.485,8.775c-1.615,0.018 -1.48,2.034 0,2.065c5.92,-0.244 19.211,-0.244 25.034,0c1.845,-0.031 2.519,-2.449 0,-2.582c-6.352,0.267 -8.249,-4.84 -8.258,-13.678c0,0 -1.058,-44.277 -1.034,-45.938c0.116,-8.05 1.459,-10.414 9.292,-11.869c1.175,0.514 1.578,-1.504 0,-1.55c-3.518,0.185 -6.825,0.291 -10.065,0.257c-2.574,0.034 -5.158,-0.211 -8.518,-0.257c-0.943,0.046 -1.199,0.994 -1.289,1.031l-26.582,62.713l-30.711,-62.969c-0.029,0.08 -0.156,-0.861 -1.289,-0.775c-4.222,0.261 -5.81,0.291 -6.711,0.257c-3.048,0.034 -5.291,-0.072 -8.773,-0.257c-1.662,0.046 -2.066,2.468 0,2.582c7.477,0.127 8.686,2.976 8.773,10.837c-0.087,0.258 0.024,16.278 0,27.872c-0.203,12.074 -0.318,21.609 -1.031,25.035c-1.041,4.961 -2.613,6.976 -7.742,6.968c-1.125,-0.126 -1.662,2.292 0,2.063l0,0Z" style="fill:#222;fill-rule:nonzero;"/>
    </g>
  </g>
</svg>